<svg width="129" height="88" viewBox="0 0 129 88" fill="none" xmlns="http://www.w3.org/2000/svg">
<path d="M111.022 48.2648C112.082 32.5911 98.4158 20.5092 84.0694 24.1865C81.161 10.3485 69.4717 0 55.4915 0C38.9234 0 25.5632 14.5382 26.2433 32.192C26.2343 32.192 26.2255 32.1915 26.2165 32.1915C11.7374 32.1915 0 44.5859 0 59.8753C0 74.8049 11.1924 86.9721 25.1998 87.5363V87.559H109.419C119.715 87.559 128.061 78.7453 128.061 67.8731C128.061 57.5718 120.567 49.1237 111.022 48.2648Z" fill="#2770BE" fill-opacity="0.8"/>
<path d="M111.022 48.2648C112.082 32.5908 98.4158 20.5092 84.0694 24.1865C81.161 10.3485 69.4717 0 55.4915 0C50.8653 0 46.4897 1.1344 42.5996 3.15254C43.5751 3.04874 44.5643 2.99459 45.5655 2.99459C59.5457 2.99459 71.2351 13.3431 74.1434 27.1811C88.4898 23.5035 102.156 35.5854 101.096 51.2594C110.641 52.1186 118.135 60.5665 118.135 70.8679C118.135 77.9067 114.634 84.079 109.374 87.559H109.419C119.715 87.559 128.061 78.7453 128.061 67.8731C128.061 57.5718 120.567 49.1237 111.022 48.2648Z" fill="#010D57"/>
</svg>
