<svg width="40" height="40" viewBox="0 0 40 40" fill="none" xmlns="http://www.w3.org/2000/svg">
<path d="M20.0001 0.0830078C8.95447 0.0830078 0 9.03748 0 20.0831C0 29.9898 7.21044 38.1942 16.6645 39.7829V24.2557H11.8399V18.6681H16.6645V14.548C16.6645 9.76754 19.5843 7.16246 23.8494 7.16246C25.8921 7.16246 27.6476 7.31468 28.1572 7.38172V12.3786L25.1991 12.38C22.88 12.38 22.4329 13.4818 22.4329 15.0991V18.6652H27.9664L27.2447 24.2528H22.4329V39.9165C32.3284 38.7121 40 30.2987 40 20.0774C40 9.03748 31.0455 0.0830078 20.0001 0.0830078Z" fill="white"/>
</svg>
