<svg width="40" height="40" viewBox="0 0 40 40" fill="none" xmlns="http://www.w3.org/2000/svg">
<path d="M20 11.875C15.4766 11.875 11.7969 15.5547 11.7969 20.0781C11.7969 24.6016 15.4766 28.2812 20 28.2812C24.5234 28.2812 28.2031 24.6016 28.2031 20.0781C28.2031 15.5547 24.5234 11.875 20 11.875ZM20 11.875C15.4766 11.875 11.7969 15.5547 11.7969 20.0781C11.7969 24.6016 15.4766 28.2812 20 28.2812C24.5234 28.2812 28.2031 24.6016 28.2031 20.0781C28.2031 15.5547 24.5234 11.875 20 11.875ZM34.1406 0H5.85938C2.625 0 0 2.625 0 5.85938V34.1406C0 37.375 2.625 40 5.85938 40H34.1406C37.375 40 40 37.375 40 34.1406V5.85938C40 2.625 37.375 0 34.1406 0ZM20 30.625C14.1876 30.625 9.45312 25.8905 9.45312 20.0781C9.45312 14.2655 14.1876 9.53125 20 9.53125C25.8124 9.53125 30.5469 14.2655 30.5469 20.0781C30.5469 25.8905 25.8124 30.625 20 30.625ZM32.8906 9.53125C31.6016 9.53125 30.5469 8.47656 30.5469 7.1875C30.5469 5.89844 31.6016 4.84375 32.8906 4.84375C34.1797 4.84375 35.2344 5.89844 35.2344 7.1875C35.2344 8.47656 34.1797 9.53125 32.8906 9.53125ZM20 11.875C15.4766 11.875 11.7969 15.5547 11.7969 20.0781C11.7969 24.6016 15.4766 28.2812 20 28.2812C24.5234 28.2812 28.2031 24.6016 28.2031 20.0781C28.2031 15.5547 24.5234 11.875 20 11.875ZM20 11.875C15.4766 11.875 11.7969 15.5547 11.7969 20.0781C11.7969 24.6016 15.4766 28.2812 20 28.2812C24.5234 28.2812 28.2031 24.6016 28.2031 20.0781C28.2031 15.5547 24.5234 11.875 20 11.875ZM20 11.875C15.4766 11.875 11.7969 15.5547 11.7969 20.0781C11.7969 24.6016 15.4766 28.2812 20 28.2812C24.5234 28.2812 28.2031 24.6016 28.2031 20.0781C28.2031 15.5547 24.5234 11.875 20 11.875Z" fill="white"/>
</svg>
