<svg width="110" height="110" viewBox="0 0 110 110" fill="none" xmlns="http://www.w3.org/2000/svg">
<path d="M102.665 0H7.3352C3.29076 0 0 3.40447 0 7.58816V70.1726C0 71.2194 0.821348 72.0691 1.83326 72.0691H108.167C109.178 72.0691 110 71.2194 110 70.1726V7.58816C110 3.40447 106.709 0 102.665 0ZM106.333 68.2761H3.66674V7.58816C3.66674 5.49432 5.31309 3.79319 7.3352 3.79319H102.665C104.687 3.79319 106.333 5.49432 106.333 7.58816V68.2761Z" fill="#2770BE"/>
<path d="M108.167 68.2764H1.83326C0.821348 68.2764 0 69.126 0 70.1729V79.6537C0 83.8377 3.29076 87.2419 7.3352 87.2419H102.665C106.709 87.2419 110 83.8377 110 79.6537V70.1729C110 69.126 109.179 68.2764 108.167 68.2764ZM106.333 79.654C106.333 81.7478 104.687 83.4489 102.665 83.4489H7.3352C5.31309 83.4489 3.66674 81.7478 3.66674 79.654V72.0696H106.333V79.654H106.333Z" fill="#2770BE"/>
<path d="M60.5003 75.8613H49.5003C48.4883 75.8613 47.667 76.711 47.667 77.7578C47.667 78.8046 48.4883 79.6543 49.5003 79.6543H60.5003C61.5122 79.6543 62.3335 78.8046 62.3335 77.7578C62.3335 76.711 61.5122 75.8613 60.5003 75.8613Z" fill="#2770BE"/>
<path d="M100.833 7.58691H9.16627C8.15436 7.58691 7.33301 8.43659 7.33301 9.4834V70.1734C7.33301 71.2202 8.15436 72.0699 9.16627 72.0699H100.833C101.845 72.0699 102.666 71.2202 102.666 70.1734V9.4834C102.666 8.43659 101.845 7.58691 100.833 7.58691ZM98.9995 68.2767H10.9995V11.3799H98.9995V68.2767Z" fill="#2770BE"/>
<path d="M78.8333 98.6206H31.1668C28.1344 98.6206 25.6667 101.173 25.6667 104.31C25.6667 107.447 28.1344 110 31.1668 110H78.8335C81.8658 110 84.3335 107.447 84.3335 104.31C84.3335 101.173 81.8656 98.6206 78.8333 98.6206ZM78.8333 106.207H31.1668C30.1548 106.207 29.3335 105.355 29.3335 104.31C29.3335 103.265 30.1548 102.414 31.1668 102.414H78.8335C79.8454 102.414 80.6668 103.265 80.6668 104.31C80.6668 105.355 79.8454 106.207 78.8333 106.207Z" fill="#2770BE"/>
<path d="M75.1663 98.6215C69.0832 98.6215 65.9995 94.1551 65.9995 85.3457C65.9995 84.2989 65.1782 83.4492 64.1663 83.4492H45.833C44.8211 83.4492 43.9998 84.2989 43.9998 85.3457C43.9998 94.1551 40.9161 98.6215 34.833 98.6215C33.8211 98.6215 32.9998 99.4712 32.9998 100.518C32.9998 101.565 33.8211 102.415 34.833 102.415H75.1663C76.1782 102.415 76.9995 101.565 76.9995 100.518C76.9995 99.4712 76.1782 98.6215 75.1663 98.6215ZM43.763 98.6215C46.0199 96.0347 47.3489 92.1826 47.6166 87.2422H62.3841C62.6499 92.1826 63.9791 96.0347 66.2378 98.6215H43.763Z" fill="#2770BE"/>
<path d="M87.6037 55.8805L83.1781 51.3023L85.6402 48.7553C86.0967 48.283 86.28 47.5964 86.1223 46.9497C85.9646 46.3029 85.4898 45.7909 84.8719 45.5975L66.5387 39.9078C65.8916 39.7067 65.1931 39.8907 64.7164 40.3839C64.2379 40.8771 64.0619 41.6014 64.2562 42.269L69.7562 61.2346C69.9414 61.8755 70.4381 62.3667 71.0633 62.5299C71.6865 62.6892 72.3521 62.5032 72.8087 62.0311L75.401 59.3474L79.8265 63.9276C80.1694 64.2841 80.6369 64.4832 81.1227 64.4832C81.6084 64.4832 82.0759 64.2841 82.4188 63.9276L87.6034 58.5622C88.3204 57.8208 88.3204 56.6222 87.6037 55.8805ZM81.1227 59.905L77.0931 55.7345C76.6256 55.2508 76.0133 55.0099 75.401 55.0099C74.7867 55.0099 74.1744 55.2526 73.7089 55.7325L72.3852 57.1018L68.746 44.5522L80.8771 48.317L79.4581 49.785C79.0675 50.1908 78.8531 50.7296 78.8531 51.3023C78.8531 51.877 79.0694 52.4193 79.4617 52.8214L83.715 57.2213L81.1227 59.905Z" fill="#2770BE"/>
<path d="M77.001 15.1724H25.6677C24.6558 15.1724 23.8345 16.022 23.8345 17.0688V26.5517C23.8345 27.5985 24.6558 28.4482 25.6677 28.4482H77.001C78.0129 28.4482 78.8343 27.5985 78.8343 26.5517V17.0688C78.8343 16.022 78.0129 15.1724 77.001 15.1724ZM75.1678 24.6552H27.501V18.9656H75.1678V24.6552Z" fill="#2770BE"/>
<path d="M47.6667 36.0356H33C31.9881 36.0356 31.1667 36.8853 31.1667 37.9321V45.5183C31.1667 46.5651 31.9881 47.4148 33 47.4148H47.6667C48.6787 47.4148 49.5 46.5651 49.5 45.5183V37.9321C49.5 36.8853 48.6787 36.0356 47.6667 36.0356ZM45.8333 43.6218H34.8333V39.8286H45.8333V43.6218Z" fill="#2770BE"/>
<path d="M77.001 15.1724H25.6677C24.6558 15.1724 23.8345 16.022 23.8345 17.0688V53.1034C23.8345 54.1502 24.6558 54.9999 25.6677 54.9999H69.3122C69.8934 54.9999 70.4378 54.7174 70.7826 54.2355C71.1291 53.7539 71.2355 53.1318 71.0685 52.5571L68.7476 44.5518L76.4751 46.951C77.0307 47.1237 77.632 47.0137 78.0957 46.6552C78.5612 46.2987 78.8345 45.7335 78.8345 45.1341V17.0688C78.8343 16.022 78.0129 15.1724 77.001 15.1724ZM75.1678 42.5853L66.5381 39.9073C65.891 39.7062 65.1926 39.8902 64.7158 40.3834C64.2374 40.8784 64.0614 41.6009 64.2556 42.2706L66.8479 51.2071H27.501V18.9656H75.1678V42.5853Z" fill="#2770BE"/>
</svg>
