<svg width="110" height="110" viewBox="0 0 110 110" fill="none" xmlns="http://www.w3.org/2000/svg">
<path d="M67.9589 56.9506C70.4552 52.532 71.8869 47.2413 71.8869 42.4347C71.8869 37.0155 70.0721 32.56 66.639 29.5488C63.4882 26.7857 59.1375 25.325 54.0568 25.3252C48.9762 25.3252 44.6257 26.7857 41.4751 29.5488C38.0418 32.5598 36.227 37.0155 36.227 42.4347C36.227 47.2413 37.6587 52.532 40.1548 56.9506C42.1179 60.4255 44.591 63.1429 47.3044 64.8542C38.3655 66.4516 30.3173 71.2094 24.8773 78.2031C24.6522 78.4923 24.6189 78.8763 24.7914 79.1963C24.9637 79.5164 25.3123 79.7178 25.6933 79.7178L82.4208 79.7174C82.8021 79.7174 83.1505 79.516 83.3228 79.1958C83.4953 78.8759 83.462 78.4919 83.2369 78.2026C77.7969 71.2091 69.7482 66.4516 60.8095 64.8542C63.5229 63.1429 65.9958 60.4255 67.9589 56.9506ZM57.1989 64.4787C56.7555 64.631 56.4828 65.0518 56.5421 65.4925C56.6013 65.9334 56.9766 66.2771 57.4464 66.3205C66.388 67.1504 74.6277 71.307 80.3514 77.813L27.763 77.8135C28.9398 76.4755 30.2249 75.2388 31.5988 74.108H57.1046C57.6634 74.108 58.1161 73.6819 58.1161 73.1558C58.1161 72.6298 57.6634 72.2037 57.1046 72.2037H34.148C38.9716 68.9391 44.6607 66.8779 50.6678 66.3205C51.1376 66.2771 51.5128 65.9334 51.5721 65.4925C51.6314 65.0515 51.3589 64.6308 50.9153 64.4787C44.0501 62.1195 38.2501 52.0246 38.2501 42.4347C38.2501 31.224 46.4156 27.2298 54.0571 27.2298C58.6168 27.2298 62.4908 28.5133 65.2604 30.9424C67.1185 32.5719 68.4343 34.7099 69.1711 37.253H53.059C52.5002 37.253 52.0476 37.6791 52.0476 38.2052C52.0476 38.7312 52.5002 39.1574 53.059 39.1574H69.6002C69.7732 40.1971 69.8643 41.29 69.8643 42.4347C69.8641 52.0246 64.0641 62.1193 57.1989 64.4787Z" fill="#2770BE"/>
<path d="M45.8102 92.2408C27.4506 88.2177 14.6283 72.9955 14.6283 55.2229C14.6283 38.9915 25.8543 24.3624 42.0925 19.2009V21.5569C42.0925 21.9138 42.3045 22.2407 42.6415 22.4036C42.9783 22.5669 43.384 22.5389 43.6924 22.3314L58.9926 12.0291C59.2579 11.8503 59.4155 11.5619 59.4155 11.2545C59.4155 10.9472 59.2579 10.6588 58.9926 10.48L43.6924 0.17765C43.384 -0.029814 42.9783 -0.0578193 42.6415 0.105508C42.3045 0.268611 42.0925 0.595265 42.0925 0.952165V4.88053C30.4187 7.5267 19.8424 13.8194 12.2366 22.6597C4.34573 31.832 0 43.3966 0 55.2229C0 67.4718 4.62631 79.3554 13.0272 88.6848C21.3305 97.9062 32.8294 104.132 45.4056 106.215C45.4639 106.225 45.5225 106.23 45.5808 106.23C45.8166 106.23 46.0475 106.152 46.231 106.007C46.4599 105.826 46.5922 105.559 46.5922 105.277V93.1679C46.5922 92.7256 46.2681 92.3412 45.8102 92.2408ZM2.02282 55.2229C2.02282 32.0957 19.3931 11.6323 43.3259 6.56533C43.7876 6.46742 44.1153 6.08185 44.1153 5.63645V2.80388L56.6654 11.2545L44.1153 19.7054V17.8988C44.1153 17.5979 43.9642 17.3147 43.7077 17.135C43.4511 16.9551 43.1196 16.9002 42.8136 16.9867C34.2604 19.3994 26.5691 24.4408 21.157 31.1822C15.5626 38.1506 12.6055 46.4642 12.6055 55.2229C12.6055 64.2872 15.9213 73.1616 21.9416 80.2117C27.7031 86.9583 35.7135 91.8042 44.5694 93.9166V99.0275C22.475 94.8274 6.56417 76.5856 6.56417 55.2229C6.56417 54.6969 6.11153 54.2707 5.55276 54.2707C4.99399 54.2707 4.54135 54.6969 4.54135 55.2229C4.54135 66.2465 8.70503 76.9416 16.2656 85.3383C23.554 93.4323 33.5783 98.9603 44.5694 100.968V104.13C19.8436 99.4935 2.02282 79.105 2.02282 55.2229Z" fill="#2770BE"/>
<path d="M96.9729 21.7611C88.6698 12.5397 77.1707 6.31381 64.5947 4.23067C64.3008 4.18205 63.9983 4.25822 63.7691 4.43925C63.5402 4.62028 63.4079 4.88711 63.4079 5.16851V17.278C63.4079 17.7207 63.732 18.105 64.1899 18.2056C82.5492 22.2287 95.3718 37.4508 95.3718 55.2234C95.3718 71.4598 84.1406 86.0905 67.8955 91.2493V88.4434C67.8955 88.0865 67.6834 87.7596 67.3465 87.5967C67.0095 87.4334 66.604 87.4614 66.2955 87.6689L50.9954 97.971C50.7301 98.1498 50.5725 98.4381 50.5725 98.7455C50.5725 99.0529 50.7301 99.3413 50.9954 99.52L66.2955 109.822C66.4704 109.94 66.6768 110 66.8841 110C67.0421 110 67.2008 109.965 67.3465 109.895C67.6834 109.731 67.8955 109.405 67.8955 109.048V105.569C79.5721 102.924 90.1515 96.6324 97.7594 87.791C105.653 78.618 110 67.052 110 55.2234C110 42.9741 105.374 31.0905 96.9729 21.7611ZM66.6625 103.883C66.2011 103.981 65.8729 104.367 65.8729 104.812V107.196L53.3228 98.7453L65.8729 90.2946V92.551C65.8729 92.8519 66.024 93.135 66.2803 93.3147C66.5368 93.4946 66.8683 93.5495 67.1744 93.463C75.7307 91.0521 83.4248 86.0112 88.8393 79.2688C94.4365 72.2991 97.3948 63.9842 97.3948 55.2232C97.3948 46.1589 94.0791 37.2846 88.0587 30.2344C82.2972 23.4878 74.2871 18.642 65.431 16.5295V11.5497C87.458 15.7384 103.32 33.9253 103.32 55.2232C103.32 55.7493 103.772 56.1754 104.331 56.1754C104.89 56.1754 105.343 55.7493 105.343 55.2232C105.343 44.2308 101.191 33.5664 93.6517 25.1939C86.3848 17.1234 76.3896 11.6115 65.431 9.60926V6.31583C90.1567 10.9526 107.978 31.3412 107.978 55.2232C107.978 78.3554 90.602 98.8199 66.6625 103.883Z" fill="#2770BE"/>
</svg>
