<svg width="110" height="109" viewBox="0 0 110 109" fill="none" xmlns="http://www.w3.org/2000/svg">
<path d="M42.167 75.6724H67.8337V79.2758H42.167V75.6724Z" fill="#010D57"/>
<path d="M34.833 75.6724H38.4997V79.2758H34.833V75.6724Z" fill="#010D57"/>
<path d="M108.167 7.2069H82.5V5.40517C82.4957 3.97295 81.9148 2.6006 80.8843 1.58786C79.8538 0.575123 78.4574 0.00427746 77 0H33C31.5426 0.00427746 30.1462 0.575123 29.1157 1.58786C28.0852 2.6006 27.5044 3.97295 27.5 5.40517V12.6121H1.83333C1.3471 12.6121 0.880787 12.8019 0.536971 13.1398C0.193154 13.4777 0 13.9359 0 14.4138V36.0345C0 36.5123 0.193154 36.9706 0.536971 37.3085C0.880787 37.6464 1.3471 37.8362 1.83333 37.8362H27.5V41.4397C25.0688 41.4397 22.7373 42.3888 21.0182 44.0782C19.2991 45.7677 18.3333 48.059 18.3333 50.4483V57.8173L22 95.5634V106.302C22 106.78 22.1932 107.238 22.537 107.576C22.8808 107.914 23.3471 108.103 23.8333 108.103H64.1667C64.6529 108.103 65.1192 107.914 65.463 107.576C65.8068 107.238 66 106.78 66 106.302V96.0679L72.82 86.4827H77C78.4574 86.4785 79.8538 85.9076 80.8843 84.8949C81.9148 83.8821 82.4957 82.5098 82.5 81.0776V79.2759H84.3333C85.8258 79.2811 87.284 78.837 88.512 78.0034C89.7399 77.1697 90.6786 75.9865 91.2018 74.6128C91.7249 73.2392 91.8075 71.741 91.4383 70.3199C91.0691 68.8988 90.2658 67.6228 89.1367 66.6638C89.9301 65.9955 90.5671 65.1664 91.0038 64.2334C91.4404 63.3004 91.6665 62.2856 91.6665 61.2586C91.6665 60.2316 91.4404 59.2168 91.0038 58.2838C90.5671 57.3508 89.9301 56.5217 89.1367 55.8534C89.9301 55.1852 90.5671 54.3561 91.0038 53.4231C91.4404 52.4901 91.6665 51.4752 91.6665 50.4483C91.6665 49.4213 91.4404 48.4065 91.0038 47.4735C90.5671 46.5405 89.9301 45.7114 89.1367 45.0431C90.2658 44.084 91.0691 42.8081 91.4383 41.387C91.8075 39.9659 91.7249 38.4677 91.2018 37.094C90.6786 35.7204 89.7399 34.5372 88.512 33.7035C87.284 32.8699 85.8258 32.4258 84.3333 32.431H82.5V28.8276H108.167C108.653 28.8276 109.119 28.6378 109.463 28.2999C109.807 27.962 110 27.5037 110 27.0259V9.00862C110 8.53077 109.807 8.0725 109.463 7.73461C109.119 7.39672 108.653 7.2069 108.167 7.2069ZM69.1533 3.60345L68.585 5.83759C68.4867 6.2282 68.2582 6.57526 67.936 6.82342C67.6137 7.07159 67.2161 7.20658 66.8067 7.2069H43.1933C42.7839 7.20658 42.3863 7.07159 42.064 6.82342C41.7418 6.57526 41.5133 6.2282 41.415 5.83759L40.8467 3.60345H69.1533ZM3.66667 34.2328V16.2155H36.6667V34.2328H3.66667ZM62.3333 104.5H25.6667V97.2931H62.3333V104.5ZM63.2133 93.6896H25.5017L22 57.6552V50.4483C22.0044 49.016 22.5852 47.6437 23.6157 46.631C24.6462 45.6182 26.0426 45.0474 27.5 45.0431H40.3333C41.792 45.0431 43.191 45.6126 44.2224 46.6262C45.2539 47.6399 45.8333 49.0147 45.8333 50.4483C45.8333 51.8818 45.2539 53.2566 44.2224 54.2703C43.191 55.284 41.792 55.8534 40.3333 55.8534H29.3333C28.8471 55.8534 28.3808 56.0433 28.037 56.3812C27.6932 56.719 27.5 57.1773 27.5 57.6552V81.0776C27.5044 82.5098 28.0852 83.8821 29.1157 84.8949C30.1462 85.9076 31.5426 86.4785 33 86.4827H68.3467L63.2133 93.6896ZM78.8333 81.0776C78.8333 81.5554 78.6402 82.0137 78.2964 82.3516C77.9525 82.6895 77.4862 82.8793 77 82.8793H33C32.5138 82.8793 32.0475 82.6895 31.7036 82.3516C31.3598 82.0137 31.1667 81.5554 31.1667 81.0776V59.4569H40.3333C42.7645 59.4569 45.0961 58.5078 46.8151 56.8183C48.5342 55.1289 49.5 52.8375 49.5 50.4483C49.5 48.059 48.5342 45.7677 46.8151 44.0782C45.0961 42.3888 42.7645 41.4397 40.3333 41.4397H31.1667V37.8362H38.5C38.9862 37.8362 39.4525 37.6464 39.7964 37.3085C40.1402 36.9706 40.3333 36.5123 40.3333 36.0345V14.4138C40.3333 13.9359 40.1402 13.4777 39.7964 13.1398C39.4525 12.8019 38.9862 12.6121 38.5 12.6121H31.1667V5.40517C31.1667 4.92732 31.3598 4.46905 31.7036 4.13116C32.0475 3.79327 32.5138 3.60345 33 3.60345H37.07L37.8583 6.72043C38.1566 7.88895 38.8436 8.92603 39.8102 9.66702C40.7767 10.408 41.9675 10.8104 43.1933 10.8103H66.8067C68.0325 10.8104 69.2233 10.408 70.1898 9.66702C71.1564 8.92603 71.8434 7.88895 72.1417 6.72043L72.93 3.60345H77C77.4862 3.60345 77.9525 3.79327 78.2964 4.13116C78.6402 4.46905 78.8333 4.92732 78.8333 5.40517V7.2069H75.1667C74.6804 7.2069 74.2141 7.39672 73.8703 7.73461C73.5265 8.0725 73.3333 8.53077 73.3333 9.00862V27.0259C73.3333 27.5037 73.5265 27.962 73.8703 28.2999C74.2141 28.6378 74.6804 28.8276 75.1667 28.8276H78.8333V32.431H77C75.5076 32.4258 74.0493 32.8699 72.8214 33.7035C71.5934 34.5372 70.6547 35.7204 70.1316 37.094C69.6084 38.4677 69.5259 39.9659 69.8951 41.387C70.2643 42.8081 71.0675 44.084 72.1967 45.0431C71.4032 45.7114 70.7663 46.5405 70.3296 47.4735C69.8929 48.4065 69.6668 49.4213 69.6668 50.4483C69.6668 51.4752 69.8929 52.4901 70.3296 53.4231C70.7663 54.3561 71.4032 55.1852 72.1967 55.8534C71.4032 56.5217 70.7663 57.3508 70.3296 58.2838C69.8929 59.2168 69.6668 60.2316 69.6668 61.2586C69.6668 62.2856 69.8929 63.3004 70.3296 64.2334C70.7663 65.1664 71.4032 65.9955 72.1967 66.6638C71.0675 67.6228 70.2643 68.8988 69.8951 70.3199C69.5259 71.741 69.6084 73.2392 70.1316 74.6128C70.6547 75.9865 71.5934 77.1697 72.8214 78.0034C74.0493 78.837 75.5076 79.2811 77 79.2759H78.8333V81.0776ZM84.3333 75.6724H77C76.0275 75.6724 75.0949 75.2928 74.4073 74.617C73.7196 73.9412 73.3333 73.0247 73.3333 72.069C73.3333 71.1133 73.7196 70.1967 74.4073 69.5209C75.0949 68.8452 76.0275 68.4655 77 68.4655H84.3333C85.3058 68.4655 86.2384 68.8452 86.9261 69.5209C87.6137 70.1967 88 71.1133 88 72.069C88 73.0247 87.6137 73.9412 86.9261 74.617C86.2384 75.2928 85.3058 75.6724 84.3333 75.6724ZM84.3333 64.8621H77C76.0275 64.8621 75.0949 64.4824 74.4073 63.8066C73.7196 63.1309 73.3333 62.2143 73.3333 61.2586C73.3333 60.3029 73.7196 59.3864 74.4073 58.7106C75.0949 58.0348 76.0275 57.6552 77 57.6552H84.3333C85.3058 57.6552 86.2384 58.0348 86.9261 58.7106C87.6137 59.3864 88 60.3029 88 61.2586C88 62.2143 87.6137 63.1309 86.9261 63.8066C86.2384 64.4824 85.3058 64.8621 84.3333 64.8621ZM84.3333 54.0517H77C76.0275 54.0517 75.0949 53.6721 74.4073 52.9963C73.7196 52.3205 73.3333 51.404 73.3333 50.4483C73.3333 49.4926 73.7196 48.576 74.4073 47.9002C75.0949 47.2245 76.0275 46.8448 77 46.8448H84.3333C85.3058 46.8448 86.2384 47.2245 86.9261 47.9002C87.6137 48.576 88 49.4926 88 50.4483C88 51.404 87.6137 52.3205 86.9261 52.9963C86.2384 53.6721 85.3058 54.0517 84.3333 54.0517ZM84.3333 36.0345C85.3058 36.0345 86.2384 36.4141 86.9261 37.0899C87.6137 37.7657 88 38.6822 88 39.6379C88 40.5936 87.6137 41.5102 86.9261 42.1859C86.2384 42.8617 85.3058 43.2414 84.3333 43.2414H77C76.0275 43.2414 75.0949 42.8617 74.4073 42.1859C73.7196 41.5102 73.3333 40.5936 73.3333 39.6379C73.3333 38.6822 73.7196 37.7657 74.4073 37.0899C75.0949 36.4141 76.0275 36.0345 77 36.0345H84.3333ZM106.333 25.2241H77V10.8103H106.333V25.2241Z" fill="#010D57"/>
<path d="M7.33301 19.8193H10.9997V23.4228H7.33301V19.8193Z" fill="#010D57"/>
<path d="M14.667 19.8193H33.0003V23.4228H14.667V19.8193Z" fill="#010D57"/>
<path d="M7.33301 27.0259H32.9997V30.6293H7.33301V27.0259Z" fill="#010D57"/>
<path d="M80.667 16.2153H88.0003V19.8188H80.667V16.2153Z" fill="#010D57"/>
<path d="M91.667 16.2153H102.667V19.8188H91.667V16.2153Z" fill="#010D57"/>
</svg>
