<svg width="110" height="127" viewBox="0 0 110 127" fill="none" xmlns="http://www.w3.org/2000/svg">
<path d="M8.62769 102.335H17.6145V106.495H8.62769V102.335Z" fill="#010D57"/>
<path d="M21.5688 102.335H37.745V106.495H21.5688V102.335Z" fill="#010D57"/>
<path d="M1.79735 25.7915H19.7709C20.7635 25.7915 21.5683 24.8602 21.5683 23.7115V7.07168C21.5683 5.92302 20.7635 4.9917 19.7709 4.9917H1.79735C0.804772 4.9917 0 5.92302 0 7.07168V23.7115C0 24.8602 0.804772 25.7915 1.79735 25.7915ZM3.59471 9.15166H17.9735V21.6315H3.59471V9.15166Z" fill="#010D57"/>
<path d="M7.19336 13.313H14.3828V17.4729H7.19336V13.313Z" fill="#010D57"/>
<path d="M1.79735 116.062H41.3392C42.3317 116.062 43.1365 115.131 43.1365 113.983V97.3427C43.1365 96.194 42.3317 95.2627 41.3392 95.2627H28.7577V84.8628H25.163V95.2627H1.79735C0.804772 95.2627 0 96.194 0 97.3427V113.983C0 115.131 0.804772 116.062 1.79735 116.062ZM3.59471 99.4226H39.5418V111.903H3.59471V99.4226Z" fill="#010D57"/>
<path d="M53.9207 112.319H57.5154V116.479H53.9207V112.319Z" fill="#010D57"/>
<path d="M84.3538 97.3428H80.7591V105.663H48.4067V109.823H80.7591V116.063C80.7591 119.509 78.3448 122.303 75.367 122.303H35.8253C33.8989 122.299 32.1191 121.111 31.152 119.183L28.0391 121.263C29.6504 124.475 32.6158 126.455 35.8253 126.462H75.367C80.3282 126.455 84.3477 121.804 84.3538 116.063V97.3428Z" fill="#010D57"/>
<path d="M99.5747 36.608C100.567 36.608 101.372 35.6767 101.372 34.528V9.56826C101.372 8.4196 100.567 7.48828 99.5747 7.48828H60.0329C59.0404 7.48828 58.2356 8.4196 58.2356 9.56826V34.528C58.2356 35.6767 59.0404 36.608 60.0329 36.608H99.5747ZM61.8303 11.6482H97.7774V32.448H61.8303V11.6482Z" fill="#010D57"/>
<path d="M65.4263 15.8091H72.6157V19.969H65.4263V15.8091Z" fill="#010D57"/>
<path d="M76.2102 15.8091H94.1837V19.969H76.2102V15.8091Z" fill="#010D57"/>
<path d="M65.4263 24.1289H94.1839V28.2889H65.4263V24.1289Z" fill="#010D57"/>
<path d="M61.8282 56.1594V51.9994H56.3449C55.4488 38.7264 46.3374 28.1823 34.8679 27.1453V20.7998H31.2732V27.1453C30.0621 27.253 28.8606 27.4703 27.6785 27.7943V16.6398H56.4361V12.4799H27.6785V10.3999C27.6785 6.95391 30.0928 4.15996 33.0705 4.15996H72.6123C73.9252 4.15996 75.1934 4.71448 76.1781 5.71994L78.5564 2.59997C76.9153 0.923194 74.8011 -0.00101478 72.6123 8.36154e-07H33.0705C28.1094 0.00711015 24.0899 4.65862 24.0838 10.3999V29.1197C15.9904 33.043 10.4746 41.8758 9.7962 51.9994H4.31287V56.1594H9.80059C10.6484 69.4578 19.7817 80.0345 31.2732 81.0237V87.3591H34.8679V81.0237C46.3594 80.0345 55.4927 69.4578 56.3405 56.1594H61.8282ZM31.2732 72.7992V76.8637C28.7658 76.6027 26.3261 75.7872 24.0838 74.4628V70.7192C24.0838 64.9759 28.1076 60.3194 33.0705 60.3194C38.0334 60.3194 42.0573 64.9759 42.0573 70.7192V74.4628C39.8159 75.7892 37.3752 76.6057 34.8679 76.8698V72.7992H31.2732ZM27.6785 49.9195C27.6785 46.4735 30.0928 43.6795 33.0705 43.6795C36.0483 43.6795 38.4626 46.4735 38.4626 49.9195C38.4626 53.3654 36.0483 56.1594 33.0705 56.1594C30.0928 56.1594 27.6785 53.3654 27.6785 49.9195ZM46.2505 71.1356C46.0566 71.3428 45.8495 71.5094 45.652 71.7013V70.7192C45.6476 65.2857 43.0288 60.3072 38.8601 57.8067C41.7475 54.9925 42.8068 50.3897 41.5123 46.2866C40.2178 42.1825 36.8451 39.4525 33.0705 39.4525C29.2959 39.4525 25.9232 42.1825 24.6288 46.2866C23.3343 50.3897 24.3936 54.9925 27.2809 57.8067C23.1122 60.3072 20.4934 65.2857 20.489 70.7192V71.7115C20.2898 71.5226 20.0827 71.3449 19.8905 71.1458C16.1659 67.2804 13.8446 61.9261 13.3953 56.1594H16.8943V51.9994H13.3909C14.2694 41.0186 21.7844 32.3219 31.2732 31.3053V35.3596H34.8679V31.3053C44.3566 32.3219 51.8717 41.0186 52.7501 51.9994H49.2467V56.1594H52.7458C52.2964 61.9261 49.9751 67.2804 46.2505 71.1458V71.1356Z" fill="#010D57"/>
<path d="M104.29 39.9355C102.899 39.9386 101.556 40.5297 100.516 41.5991L84.837 57.595V39.9355H81.2422V60.7353H81.7618L71.5366 71.1768C64.8842 71.6176 59.6816 77.9835 59.6737 85.6951V89.3645C59.6808 91.4282 58.6724 93.3183 57.0733 94.2333C56.3265 94.6639 55.9342 95.6328 56.1255 96.5723C56.3168 97.5117 57.0417 98.1759 57.8764 98.1749H70.458C77.1218 98.1658 82.6228 92.1452 83.0036 84.4469L108.573 50.9133C110.057 48.9654 110.418 46.1917 109.494 43.8243C108.571 41.4569 106.535 39.9355 104.29 39.9355ZM70.458 94.015H62.2382C62.9166 92.5911 63.2711 90.9905 63.2685 89.3645V85.6951C63.2746 80.2768 66.8694 75.7684 71.5366 75.3287L79.4159 84.4469C79.0368 89.8479 75.1401 94.0089 70.458 94.015ZM105.877 48.162L81.1615 80.5784L74.8795 73.3107L102.892 44.7069C103.73 43.8558 104.994 43.9036 105.783 44.8156C106.571 45.7286 106.613 47.1921 105.877 48.162Z" fill="#010D57"/>
</svg>
