<svg width="1140" height="556" viewBox="0 0 1140 556" fill="none" xmlns="http://www.w3.org/2000/svg">
<rect width="1140" height="404.653" rx="30" transform="matrix(1 0 0 -1 0 556)" fill="#2770BE"/>
<path d="M0 0L27.1542 15.2944C54.3083 30.876 108.458 61.034 163.083 61.2495C217.154 61.034 271.542 30.876 325.375 19.1719C380 7.89852 434.625 15.079 488.458 15.2944C542.846 15.079 596.917 7.89852 651.542 7.68311C705.692 7.89852 760 15.079 814.625 34.4663C868.538 53.8536 923.083 84.0116 976.917 84.227C1031.46 84.0116 1085.38 53.8536 1113.08 38.2719L1140 22.9775V206.798H1112.85C1085.69 206.798 1031.54 206.798 976.917 206.798C922.846 206.798 868.458 206.798 814.625 206.798C760 206.798 705.375 206.798 651.542 206.798C597.154 206.798 543.083 206.798 488.458 206.798C434.308 206.798 380 206.798 325.375 206.798C271.462 206.798 216.917 206.798 163.083 206.798C108.537 206.798 54.625 206.798 26.9167 206.798H0V0Z" fill="#2770BE"/>
</svg>
